grf_walk
version=1
nRows=22
nColumns=19
inDegrees=no
endheader
time	ground_force_r_vx	ground_force_r_vy	ground_force_r_vz	ground_force_r_px	ground_force_r_py	ground_force_r_pz	ground_torque_r_x	ground_torque_r_y	ground_torque_r_z	ground_force_l_vx	ground_force_l_vy	ground_force_l_vz	ground_force_l_px	ground_force_l_py	ground_force_l_pz	ground_torque_l_x	ground_torque_l_y	ground_torque_l_z
0.00000000	0.00000000	0.00000000	0.00000000	0.00000000	0.00000000	0.00000000	0.00000000	0.00000000	0.00000000	-20.15160000	483.30800100	-47.36436100	0.86289600	0.00117000	-0.37375400	12.84002574	-4.01540322	-17.93873634
0.00399987	0.00000000	0.00000000	0.00000000	0.00000000	0.00000000	0.00000000	0.00000000	0.00000000	0.00000000	-14.50880700	486.36069800	-44.00203100	0.85491100	0.00115800	-0.37184200	13.85143976	-4.49275096	-14.16959415
0.00799973	0.00000000	0.00000000	0.00000000	0.00000000	0.00000000	0.00000000	0.00000000	0.00000000	0.00000000	-9.62462500	485.14573600	-44.15657600	0.85497300	0.00115900	-0.37215100	13.66744774	-5.05858364	-14.16503571
0.01199960	0.00000000	0.00000000	0.00000000	0.00000000	0.00000000	0.00000000	0.00000000	0.00000000	0.00000000	-9.77480900	483.01400600	-47.05965800	0.85495500	0.00116000	-0.37326500	13.06961068	-5.38609045	-14.09451832
0.01599947	0.00000000	0.00000000	0.00000000	0.00000000	0.00000000	0.00000000	0.00000000	0.00000000	0.00000000	-15.26659700	481.79056600	-49.19786100	0.85451000	0.00116300	-0.37510000	12.14844412	-1.65114356	-13.83853764
0.01999933	0.00000000	0.00000000	0.00000000	0.00000000	0.00000000	0.00000000	0.00000000	0.00000000	0.00000000	-18.46832800	479.04308700	-50.88075400	0.85681400	0.00116800	-0.37652400	11.39456687	0.62407767	-14.85956583
0.02399920	0.00000000	0.00000000	0.00000000	0.00000000	0.00000000	0.00000000	0.00000000	0.00000000	0.00000000	-14.95352600	474.77507300	-51.19280100	0.85885000	0.00117200	-0.37780000	10.68388813	3.54620790	-15.68880941
0.02799907	0.00000000	0.00000000	0.00000000	0.00000000	0.00000000	0.00000000	0.00000000	0.00000000	0.00000000	-14.03628300	473.24408600	-47.38056400	0.85081600	0.00116100	-0.37634500	11.33943047	2.30445838	-11.83880883
0.03199893	0.00000000	0.00000000	0.00000000	0.00000000	0.00000000	0.00000000	0.00000000	0.00000000	0.00000000	-10.07071600	474.77221200	-46.00433400	0.84496400	0.00115000	-0.37394300	12.52011683	-1.14917702	-9.10455236
0.03599880	0.00000000	0.00000000	0.00000000	0.00000000	0.00000000	0.00000000	0.00000000	0.00000000	0.00000000	-6.09897100	470.80595800	-43.87448700	0.84780900	0.00115700	-0.37596800	11.46682563	-5.20384804	-10.37427197
0.03999867	0.00000000	0.00000000	0.00000000	0.00000000	0.00000000	0.00000000	0.00000000	0.00000000	0.00000000	-9.60334000	466.21802400	-40.52493500	0.84732500	0.00115300	-0.37387700	12.33247844	-7.32197680	-10.05123656
0.04399853	0.00000000	0.00000000	0.00000000	0.00000000	0.00000000	0.00000000	0.00000000	0.00000000	0.00000000	-15.09272500	462.85172400	-38.54671000	0.84151200	0.00114700	-0.37432200	12.03618831	-5.91325231	-7.28637539
0.04799840	0.00000000	0.00000000	0.00000000	0.00000000	0.00000000	0.00000000	0.00000000	0.00000000	0.00000000	-12.95340600	460.10853300	-39.16147900	0.84648700	0.00115600	-0.37633000	11.03589335	-1.37058773	-9.52467760
0.05199827	0.00000000	0.00000000	0.00000000	0.00000000	0.00000000	0.00000000	0.00000000	0.00000000	0.00000000	-12.79704200	456.75595400	-41.76087400	0.84379800	0.00115500	-0.37786700	10.24860002	2.90347378	-8.22023268
0.05599813	0.00000000	0.00000000	0.00000000	0.00000000	0.00000000	0.00000000	0.00000000	0.00000000	0.00000000	-10.81305800	456.45694100	-44.20276500	0.83805600	0.00114700	-0.37681700	10.72023854	3.55686434	-5.59304951
0.05999800	0.00000000	0.00000000	0.00000000	0.00000000	0.00000000	0.00000000	0.00000000	0.00000000	0.00000000	-6.23473700	455.86058500	-49.69737300	0.83726300	0.00114900	-0.37846100	9.95896131	1.45179989	-5.22751458
0.06399787	0.00000000	0.00000000	0.00000000	0.00000000	0.00000000	0.00000000	0.00000000	0.00000000	0.00000000	-6.69009800	453.72236900	-48.78528700	0.83823700	0.00114800	-0.37752300	10.33977467	-0.32771683	-5.64771981
0.06799773	0.00000000	0.00000000	0.00000000	0.00000000	0.00000000	0.00000000	0.00000000	0.00000000	0.00000000	-10.65703700	453.40609800	-44.66544100	0.83514500	0.00114300	-0.37619600	10.93749345	-3.04304945	-4.24655085
0.07199760	0.00000000	0.00000000	0.00000000	0.00000000	0.00000000	0.00000000	0.00000000	0.00000000	0.00000000	-13.09466600	450.03536900	-37.80440400	0.83395900	0.00114300	-0.37694200	10.52117627	-3.34094586	-3.68193658
0.07599747	0.00000000	0.00000000	0.00000000	0.00000000	0.00000000	0.00000000	0.00000000	0.00000000	0.00000000	-10.04085000	448.20087200	-33.53489100	0.83696900	0.00114500	-0.37596600	10.91317781	-1.02094729	-5.01219894
0.07999733	0.00000000	0.00000000	0.00000000	0.00000000	0.00000000	0.00000000	0.00000000	0.00000000	0.00000000	-9.58480300	449.72505200	-32.15914500	0.82432500	0.00113100	-0.37614600	10.86750871	0.64721085	0.65923304
0.08399720	0.00000000	0.00000000	0.00000000	0.00000000	0.00000000	0.00000000	0.00000000	0.00000000	0.00000000	-10.19549800	450.03936700	-38.26216200	0.82582100	0.00113200	-0.37612800	10.88592297	-1.98627531	-0.01773744
